<mxfile host="app.diagrams.net" agent="Mozilla/5.0 (Windows NT 10.0; Win64; x64) AppleWebKit/537.36 (KHTML, like Gecko) Chrome/130.0.0.0 Safari/537.36" version="24.8.3">
  <diagram name="Page-1" id="fg24WubuweBmSnnEDdJ-">
    <mxGraphModel dx="1222" dy="686" grid="1" gridSize="10" guides="1" tooltips="1" connect="1" arrows="1" fold="1" page="1" pageScale="1" pageWidth="827" pageHeight="1169" math="0" shadow="0">
      <root>
        <mxCell id="0" />
        <mxCell id="1" parent="0" />
        <mxCell id="9FWTvKUNTQUvm_NDjoZ5-1" value="Mulai" style="rounded=1;whiteSpace=wrap;arcSize=50;strokeWidth=2;" vertex="1" parent="1">
          <mxGeometry x="456" y="20" width="62" height="34" as="geometry" />
        </mxCell>
        <mxCell id="9FWTvKUNTQUvm_NDjoZ5-2" value="Inisialisasi LCD dan RFID" style="whiteSpace=wrap;strokeWidth=2;" vertex="1" parent="1">
          <mxGeometry x="370" y="104" width="233" height="49" as="geometry" />
        </mxCell>
        <mxCell id="9FWTvKUNTQUvm_NDjoZ5-3" value="Pesan: Tempatkan kartu di RFID" style="whiteSpace=wrap;strokeWidth=2;" vertex="1" parent="1">
          <mxGeometry x="233" y="202" width="250" height="66" as="geometry" />
        </mxCell>
        <mxCell id="9FWTvKUNTQUvm_NDjoZ5-4" value="Inisialisasi LED" style="whiteSpace=wrap;strokeWidth=2;" vertex="1" parent="1">
          <mxGeometry x="533" y="211" width="164" height="49" as="geometry" />
        </mxCell>
        <mxCell id="9FWTvKUNTQUvm_NDjoZ5-5" value="Ada kartu baru?" style="rhombus;strokeWidth=2;whiteSpace=wrap;" vertex="1" parent="1">
          <mxGeometry x="534" y="319" width="162" height="162" as="geometry" />
        </mxCell>
        <mxCell id="9FWTvKUNTQUvm_NDjoZ5-6" value="Dapat membaca kartu?" style="rhombus;strokeWidth=2;whiteSpace=wrap;" vertex="1" parent="1">
          <mxGeometry x="305" y="553" width="213" height="213" as="geometry" />
        </mxCell>
        <mxCell id="9FWTvKUNTQUvm_NDjoZ5-7" value="Membaca UID dari kartu" style="whiteSpace=wrap;strokeWidth=2;" vertex="1" parent="1">
          <mxGeometry x="295" y="847" width="233" height="49" as="geometry" />
        </mxCell>
        <mxCell id="9FWTvKUNTQUvm_NDjoZ5-8" value="Menampilkan UID di Serial Monitor" style="whiteSpace=wrap;strokeWidth=2;" vertex="1" parent="1">
          <mxGeometry x="288" y="955" width="248" height="66" as="geometry" />
        </mxCell>
        <mxCell id="9FWTvKUNTQUvm_NDjoZ5-9" value="UID diizinkan?" style="rhombus;strokeWidth=2;whiteSpace=wrap;" vertex="1" parent="1">
          <mxGeometry x="338" y="1079" width="148" height="148" as="geometry" />
        </mxCell>
        <mxCell id="9FWTvKUNTQUvm_NDjoZ5-10" value="Menampilkan Akses Diizinkan" style="whiteSpace=wrap;strokeWidth=2;" vertex="1" parent="1">
          <mxGeometry x="20" y="1308" width="198" height="66" as="geometry" />
        </mxCell>
        <mxCell id="9FWTvKUNTQUvm_NDjoZ5-11" value="Menyalakan LED hijau" style="whiteSpace=wrap;strokeWidth=2;" vertex="1" parent="1">
          <mxGeometry x="78" y="1425" width="217" height="49" as="geometry" />
        </mxCell>
        <mxCell id="9FWTvKUNTQUvm_NDjoZ5-12" value="Menampilkan Akses Ditolak" style="whiteSpace=wrap;strokeWidth=2;" vertex="1" parent="1">
          <mxGeometry x="1282" y="1317" width="254" height="49" as="geometry" />
        </mxCell>
        <mxCell id="9FWTvKUNTQUvm_NDjoZ5-13" value="Membaca status deny" style="whiteSpace=wrap;strokeWidth=2;" vertex="1" parent="1">
          <mxGeometry x="1444" y="1425" width="214" height="49" as="geometry" />
        </mxCell>
        <mxCell id="9FWTvKUNTQUvm_NDjoZ5-14" value="Membaca suhu dari LM35" style="whiteSpace=wrap;strokeWidth=2;" vertex="1" parent="1">
          <mxGeometry x="655" y="635" width="239" height="49" as="geometry" />
        </mxCell>
        <mxCell id="9FWTvKUNTQUvm_NDjoZ5-15" value="Menghitung suhu dalam Celsius" style="whiteSpace=wrap;strokeWidth=2;" vertex="1" parent="1">
          <mxGeometry x="660" y="839" width="229" height="66" as="geometry" />
        </mxCell>
        <mxCell id="9FWTvKUNTQUvm_NDjoZ5-16" value="Menampilkan suhu di LCD" style="whiteSpace=wrap;strokeWidth=2;" vertex="1" parent="1">
          <mxGeometry x="653" y="964" width="243" height="49" as="geometry" />
        </mxCell>
        <mxCell id="9FWTvKUNTQUvm_NDjoZ5-17" value="Suhu &gt; 35Â°C?" style="rhombus;strokeWidth=2;whiteSpace=wrap;" vertex="1" parent="1">
          <mxGeometry x="692" y="1071" width="165" height="165" as="geometry" />
        </mxCell>
        <mxCell id="9FWTvKUNTQUvm_NDjoZ5-18" value="Menyalakan LED merah" style="whiteSpace=wrap;strokeWidth=2;" vertex="1" parent="1">
          <mxGeometry x="740" y="1317" width="226" height="49" as="geometry" />
        </mxCell>
        <mxCell id="9FWTvKUNTQUvm_NDjoZ5-19" value="Menyalakan LED hijau" style="whiteSpace=wrap;strokeWidth=2;" vertex="1" parent="1">
          <mxGeometry x="1016" y="1317" width="217" height="49" as="geometry" />
        </mxCell>
        <mxCell id="9FWTvKUNTQUvm_NDjoZ5-20" value="" style="whiteSpace=wrap;strokeWidth=2;" vertex="1" parent="1">
          <mxGeometry x="573" y="659" as="geometry" />
        </mxCell>
        <mxCell id="9FWTvKUNTQUvm_NDjoZ5-21" value="" style="whiteSpace=wrap;strokeWidth=2;" vertex="1" parent="1">
          <mxGeometry x="594" y="872" as="geometry" />
        </mxCell>
        <mxCell id="9FWTvKUNTQUvm_NDjoZ5-22" value="" style="curved=1;startArrow=none;endArrow=block;exitX=0.49;exitY=0.99;entryX=0.5;entryY=-0.01;rounded=0;" edge="1" parent="1" source="9FWTvKUNTQUvm_NDjoZ5-1" target="9FWTvKUNTQUvm_NDjoZ5-2">
          <mxGeometry relative="1" as="geometry">
            <Array as="points" />
          </mxGeometry>
        </mxCell>
        <mxCell id="9FWTvKUNTQUvm_NDjoZ5-23" value="" style="curved=1;startArrow=none;endArrow=block;exitX=0.23;exitY=0.99;entryX=0.5;entryY=0.01;rounded=0;" edge="1" parent="1" source="9FWTvKUNTQUvm_NDjoZ5-2" target="9FWTvKUNTQUvm_NDjoZ5-3">
          <mxGeometry relative="1" as="geometry">
            <Array as="points">
              <mxPoint x="358" y="177" />
            </Array>
          </mxGeometry>
        </mxCell>
        <mxCell id="9FWTvKUNTQUvm_NDjoZ5-24" value="" style="curved=1;startArrow=none;endArrow=block;exitX=0.77;exitY=0.99;entryX=0.5;entryY=0;rounded=0;" edge="1" parent="1" source="9FWTvKUNTQUvm_NDjoZ5-2" target="9FWTvKUNTQUvm_NDjoZ5-4">
          <mxGeometry relative="1" as="geometry">
            <Array as="points">
              <mxPoint x="615" y="177" />
            </Array>
          </mxGeometry>
        </mxCell>
        <mxCell id="9FWTvKUNTQUvm_NDjoZ5-25" value="" style="curved=1;startArrow=none;endArrow=block;exitX=0.5;exitY=1;entryX=0.5;entryY=0;rounded=0;" edge="1" parent="1" source="9FWTvKUNTQUvm_NDjoZ5-4" target="9FWTvKUNTQUvm_NDjoZ5-5">
          <mxGeometry relative="1" as="geometry">
            <Array as="points" />
          </mxGeometry>
        </mxCell>
        <mxCell id="9FWTvKUNTQUvm_NDjoZ5-26" value="" style="curved=1;startArrow=none;endArrow=none;exitX=0.32;exitY=1;entryX=Infinity;entryY=Infinity;rounded=0;" edge="1" parent="1" source="9FWTvKUNTQUvm_NDjoZ5-5" target="9FWTvKUNTQUvm_NDjoZ5-20">
          <mxGeometry relative="1" as="geometry">
            <Array as="points">
              <mxPoint x="573" y="517" />
            </Array>
          </mxGeometry>
        </mxCell>
        <mxCell id="9FWTvKUNTQUvm_NDjoZ5-27" value="Tidak" style="curved=1;startArrow=none;endArrow=none;exitX=Infinity;exitY=Infinity;entryX=Infinity;entryY=-Infinity;rounded=0;" edge="1" parent="1" source="9FWTvKUNTQUvm_NDjoZ5-20" target="9FWTvKUNTQUvm_NDjoZ5-21">
          <mxGeometry relative="1" as="geometry">
            <Array as="points">
              <mxPoint x="573" y="802" />
            </Array>
          </mxGeometry>
        </mxCell>
        <mxCell id="9FWTvKUNTQUvm_NDjoZ5-28" value="" style="curved=1;startArrow=none;endArrow=block;exitX=Infinity;exitY=-Infinity;entryX=0.5;entryY=1;rounded=0;" edge="1" parent="1" source="9FWTvKUNTQUvm_NDjoZ5-21" target="9FWTvKUNTQUvm_NDjoZ5-5">
          <mxGeometry relative="1" as="geometry">
            <Array as="points">
              <mxPoint x="615" y="802" />
            </Array>
          </mxGeometry>
        </mxCell>
        <mxCell id="9FWTvKUNTQUvm_NDjoZ5-29" value="Ya" style="curved=1;startArrow=none;endArrow=block;exitX=0;exitY=0.72;entryX=0.28;entryY=0;rounded=0;" edge="1" parent="1" source="9FWTvKUNTQUvm_NDjoZ5-5" target="9FWTvKUNTQUvm_NDjoZ5-6">
          <mxGeometry relative="1" as="geometry">
            <Array as="points">
              <mxPoint x="347" y="517" />
            </Array>
          </mxGeometry>
        </mxCell>
        <mxCell id="9FWTvKUNTQUvm_NDjoZ5-30" value="Tidak" style="curved=1;startArrow=none;endArrow=block;exitX=0.72;exitY=0;entryX=0;entryY=0.91;rounded=0;" edge="1" parent="1" source="9FWTvKUNTQUvm_NDjoZ5-6" target="9FWTvKUNTQUvm_NDjoZ5-5">
          <mxGeometry relative="1" as="geometry">
            <Array as="points">
              <mxPoint x="474" y="517" />
            </Array>
          </mxGeometry>
        </mxCell>
        <mxCell id="9FWTvKUNTQUvm_NDjoZ5-31" value="Ya" style="curved=1;startArrow=none;endArrow=block;exitX=0.5;exitY=1;entryX=0.5;entryY=0.01;rounded=0;" edge="1" parent="1" source="9FWTvKUNTQUvm_NDjoZ5-6" target="9FWTvKUNTQUvm_NDjoZ5-7">
          <mxGeometry relative="1" as="geometry">
            <Array as="points" />
          </mxGeometry>
        </mxCell>
        <mxCell id="9FWTvKUNTQUvm_NDjoZ5-32" value="" style="curved=1;startArrow=none;endArrow=block;exitX=0.5;exitY=1;entryX=0.5;entryY=0;rounded=0;" edge="1" parent="1" source="9FWTvKUNTQUvm_NDjoZ5-7" target="9FWTvKUNTQUvm_NDjoZ5-8">
          <mxGeometry relative="1" as="geometry">
            <Array as="points" />
          </mxGeometry>
        </mxCell>
        <mxCell id="9FWTvKUNTQUvm_NDjoZ5-33" value="" style="curved=1;startArrow=none;endArrow=block;exitX=0.5;exitY=1;entryX=0.5;entryY=0;rounded=0;" edge="1" parent="1" source="9FWTvKUNTQUvm_NDjoZ5-8" target="9FWTvKUNTQUvm_NDjoZ5-9">
          <mxGeometry relative="1" as="geometry">
            <Array as="points" />
          </mxGeometry>
        </mxCell>
        <mxCell id="9FWTvKUNTQUvm_NDjoZ5-34" value="Ya" style="curved=1;startArrow=none;endArrow=block;exitX=0;exitY=0.71;entryX=0.5;entryY=0.01;rounded=0;" edge="1" parent="1" source="9FWTvKUNTQUvm_NDjoZ5-9" target="9FWTvKUNTQUvm_NDjoZ5-10">
          <mxGeometry relative="1" as="geometry">
            <Array as="points">
              <mxPoint x="119" y="1272" />
            </Array>
          </mxGeometry>
        </mxCell>
        <mxCell id="9FWTvKUNTQUvm_NDjoZ5-35" value="" style="curved=1;startArrow=none;endArrow=block;exitX=0.5;exitY=1.01;entryX=0.35;entryY=-0.01;rounded=0;" edge="1" parent="1" source="9FWTvKUNTQUvm_NDjoZ5-10" target="9FWTvKUNTQUvm_NDjoZ5-11">
          <mxGeometry relative="1" as="geometry">
            <Array as="points">
              <mxPoint x="119" y="1400" />
            </Array>
          </mxGeometry>
        </mxCell>
        <mxCell id="9FWTvKUNTQUvm_NDjoZ5-36" value="" style="curved=1;startArrow=none;endArrow=block;exitX=0.65;exitY=-0.01;entryX=0;entryY=0.66;rounded=0;" edge="1" parent="1" source="9FWTvKUNTQUvm_NDjoZ5-11" target="9FWTvKUNTQUvm_NDjoZ5-5">
          <mxGeometry relative="1" as="geometry">
            <Array as="points">
              <mxPoint x="253" y="1400" />
              <mxPoint x="253" y="517" />
            </Array>
          </mxGeometry>
        </mxCell>
        <mxCell id="9FWTvKUNTQUvm_NDjoZ5-37" value="Tidak" style="curved=1;startArrow=none;endArrow=block;exitX=1;exitY=0.56;entryX=0.5;entryY=0;rounded=0;" edge="1" parent="1" source="9FWTvKUNTQUvm_NDjoZ5-9" target="9FWTvKUNTQUvm_NDjoZ5-12">
          <mxGeometry relative="1" as="geometry">
            <Array as="points">
              <mxPoint x="1409" y="1272" />
            </Array>
          </mxGeometry>
        </mxCell>
        <mxCell id="9FWTvKUNTQUvm_NDjoZ5-38" value="" style="curved=1;startArrow=none;endArrow=block;exitX=0.5;exitY=1;entryX=0.17;entryY=-0.01;rounded=0;" edge="1" parent="1" source="9FWTvKUNTQUvm_NDjoZ5-12" target="9FWTvKUNTQUvm_NDjoZ5-13">
          <mxGeometry relative="1" as="geometry">
            <Array as="points">
              <mxPoint x="1409" y="1400" />
            </Array>
          </mxGeometry>
        </mxCell>
        <mxCell id="9FWTvKUNTQUvm_NDjoZ5-39" value="" style="curved=1;startArrow=none;endArrow=block;exitX=0.55;exitY=-0.01;entryX=1;entryY=0.56;rounded=0;" edge="1" parent="1" source="9FWTvKUNTQUvm_NDjoZ5-13" target="9FWTvKUNTQUvm_NDjoZ5-5">
          <mxGeometry relative="1" as="geometry">
            <Array as="points">
              <mxPoint x="1571" y="1400" />
              <mxPoint x="1571" y="517" />
            </Array>
          </mxGeometry>
        </mxCell>
        <mxCell id="9FWTvKUNTQUvm_NDjoZ5-40" value="" style="curved=1;startArrow=none;endArrow=block;exitX=1;exitY=0.86;entryX=0.5;entryY=0;rounded=0;" edge="1" parent="1" source="9FWTvKUNTQUvm_NDjoZ5-5" target="9FWTvKUNTQUvm_NDjoZ5-14">
          <mxGeometry relative="1" as="geometry">
            <Array as="points">
              <mxPoint x="775" y="517" />
            </Array>
          </mxGeometry>
        </mxCell>
        <mxCell id="9FWTvKUNTQUvm_NDjoZ5-41" value="" style="curved=1;startArrow=none;endArrow=block;exitX=0.5;exitY=1;entryX=0.5;entryY=-0.01;rounded=0;" edge="1" parent="1" source="9FWTvKUNTQUvm_NDjoZ5-14" target="9FWTvKUNTQUvm_NDjoZ5-15">
          <mxGeometry relative="1" as="geometry">
            <Array as="points" />
          </mxGeometry>
        </mxCell>
        <mxCell id="9FWTvKUNTQUvm_NDjoZ5-42" value="" style="curved=1;startArrow=none;endArrow=block;exitX=0.5;exitY=1;entryX=0.5;entryY=-0.01;rounded=0;" edge="1" parent="1" source="9FWTvKUNTQUvm_NDjoZ5-15" target="9FWTvKUNTQUvm_NDjoZ5-16">
          <mxGeometry relative="1" as="geometry">
            <Array as="points" />
          </mxGeometry>
        </mxCell>
        <mxCell id="9FWTvKUNTQUvm_NDjoZ5-43" value="" style="curved=1;startArrow=none;endArrow=block;exitX=0.5;exitY=0.99;entryX=0.5;entryY=0;rounded=0;" edge="1" parent="1" source="9FWTvKUNTQUvm_NDjoZ5-16" target="9FWTvKUNTQUvm_NDjoZ5-17">
          <mxGeometry relative="1" as="geometry">
            <Array as="points" />
          </mxGeometry>
        </mxCell>
        <mxCell id="9FWTvKUNTQUvm_NDjoZ5-44" value="Ya" style="curved=1;startArrow=none;endArrow=block;exitX=0.5;exitY=1;entryX=0.38;entryY=0;rounded=0;" edge="1" parent="1" source="9FWTvKUNTQUvm_NDjoZ5-17" target="9FWTvKUNTQUvm_NDjoZ5-18">
          <mxGeometry relative="1" as="geometry">
            <Array as="points">
              <mxPoint x="775" y="1272" />
            </Array>
          </mxGeometry>
        </mxCell>
        <mxCell id="9FWTvKUNTQUvm_NDjoZ5-45" value="Tidak" style="curved=1;startArrow=none;endArrow=block;exitX=1;exitY=0.75;entryX=0.31;entryY=0;rounded=0;" edge="1" parent="1" source="9FWTvKUNTQUvm_NDjoZ5-17" target="9FWTvKUNTQUvm_NDjoZ5-19">
          <mxGeometry relative="1" as="geometry">
            <Array as="points">
              <mxPoint x="1009" y="1272" />
            </Array>
          </mxGeometry>
        </mxCell>
        <mxCell id="9FWTvKUNTQUvm_NDjoZ5-46" value="" style="curved=1;startArrow=none;endArrow=block;exitX=0.68;exitY=0;entryX=1;entryY=0.66;rounded=0;" edge="1" parent="1" source="9FWTvKUNTQUvm_NDjoZ5-18" target="9FWTvKUNTQUvm_NDjoZ5-5">
          <mxGeometry relative="1" as="geometry">
            <Array as="points">
              <mxPoint x="967" y="1272" />
              <mxPoint x="967" y="517" />
            </Array>
          </mxGeometry>
        </mxCell>
        <mxCell id="9FWTvKUNTQUvm_NDjoZ5-47" value="" style="curved=1;startArrow=none;endArrow=block;exitX=0.69;exitY=0;entryX=1;entryY=0.59;rounded=0;" edge="1" parent="1" source="9FWTvKUNTQUvm_NDjoZ5-19" target="9FWTvKUNTQUvm_NDjoZ5-5">
          <mxGeometry relative="1" as="geometry">
            <Array as="points">
              <mxPoint x="1246" y="1272" />
              <mxPoint x="1246" y="517" />
            </Array>
          </mxGeometry>
        </mxCell>
      </root>
    </mxGraphModel>
  </diagram>
</mxfile>
